<svg width="16" height="16" viewBox="0 0 16 16" fill="none" xmlns="http://www.w3.org/2000/svg">
<path d="M7.99688 0.00501388C10.2676 0.00501388 12.5383 0.0112678 14.809 1.07597e-05C15.4139 -0.0024908 15.9038 0.43153 15.985 0.963112C15.9938 1.0219 16 1.08194 16 1.14072C16 5.71483 16 10.2889 16 14.8643C16 15.4709 15.5176 15.9737 14.914 15.9988C14.874 16 14.834 16 14.794 16C10.2626 16 5.72991 16 1.19847 16C0.629852 16 0.199953 15.6948 0.0499883 15.1782C0.0174959 15.0657 0.00124971 14.9431 0.00124971 14.8255C0 10.2777 0 5.72734 0 1.17825C0 0.502825 0.489885 0.00751545 1.16973 0.00501388C2.3482 0.00126154 3.52542 0.00501388 4.7039 0.00501388C5.80239 0.00501388 6.89963 0.00501388 7.99813 0.00501388H7.99688Z" fill="#2767B2"/>
<path fill-rule="evenodd" clip-rule="evenodd" d="M4.94134 3.58724C4.94009 4.34897 4.31773 4.9581 3.54167 4.9581C2.7731 4.95685 2.16324 4.34146 2.16324 3.56723C2.16324 2.7905 2.78059 2.17886 3.56041 2.17886C4.32773 2.18011 4.94259 2.80801 4.94134 3.58724ZM8.53214 6.75727L8.53214 6.75708C8.53113 6.54842 8.53021 6.35582 8.53549 6.1626C8.53924 6.03127 8.5055 5.97874 8.36179 5.97999C7.70319 5.98749 7.04459 5.98749 6.386 5.97999C6.24603 5.97874 6.20854 6.02377 6.20854 6.15885C6.21229 8.60037 6.21229 11.0431 6.20854 13.4847C6.20854 13.6335 6.26103 13.671 6.39974 13.6698C7.07834 13.6648 7.75693 13.6635 8.43552 13.6698C8.58423 13.671 8.63047 13.6298 8.63047 13.4759C8.62422 12.2577 8.62297 11.0394 8.63047 9.82114C8.63172 9.56347 8.64797 9.30206 8.69171 9.04815C8.78294 8.53033 9.01788 8.11007 9.5715 7.97248C9.74271 7.92996 9.92642 7.9212 10.1039 7.9237C10.6612 7.92996 11.0212 8.20012 11.1449 8.74672C11.2149 9.05441 11.2424 9.37711 11.2449 9.69356C11.2553 10.8619 11.2517 12.0303 11.2482 13.1987L11.2474 13.4684C11.2474 13.6135 11.2824 13.6723 11.4398 13.671C12.1184 13.6635 12.797 13.6648 13.4756 13.671C13.6181 13.6723 13.6618 13.6285 13.6618 13.4834C13.6568 12.1251 13.6568 10.7667 13.6618 9.40838C13.663 8.85804 13.633 8.31144 13.5081 7.77486C13.3344 7.0344 12.9944 6.404 12.2671 6.07755C11.546 5.7536 10.7875 5.68981 10.0214 5.88868C9.39154 6.05253 8.91291 6.43902 8.53799 7.02689L8.533 7.02814C8.533 6.93424 8.53256 6.84436 8.53214 6.75727ZM2.34445 9.81488C2.34445 10.1207 2.3446 10.4265 2.34476 10.7323C2.34523 11.6498 2.3457 12.5672 2.34195 13.4847C2.34195 13.6298 2.38569 13.6723 2.52815 13.671C3.21174 13.6648 3.89533 13.666 4.57892 13.671C4.70889 13.671 4.76263 13.6398 4.76263 13.4947C4.75888 11.0482 4.75888 8.60288 4.76263 6.15635C4.76263 6.01376 4.71264 5.98124 4.58017 5.98249C3.89658 5.98749 3.21299 5.98999 2.5294 5.98124C2.37194 5.97874 2.3407 6.03002 2.3407 6.17636C2.34445 7.08631 2.34398 7.99625 2.34351 8.9062C2.34335 9.20951 2.3432 9.51282 2.3432 9.81613L2.34445 9.81488Z" fill="white"/>
</svg>
