<svg width="16" height="16" viewBox="0 0 16 16" fill="none" xmlns="http://www.w3.org/2000/svg">
	<path fill-rule="evenodd" clip-rule="evenodd" d="M10.9118 13.2582C10.9076 13.3469 10.8704 13.4313 10.807 13.491C10.7477 13.5463 10.6705 13.5769 10.5919 13.5769H10.5809H10.454C10.3686 13.5725 10.2914 13.5332 10.2348 13.4677C10.1769 13.4008 10.1466 13.3135 10.1521 13.2233L10.5175 6.09303C10.5257 5.9155 10.6636 5.77435 10.8318 5.7758H10.971C11.0551 5.78017 11.1337 5.81946 11.1889 5.88494C11.2468 5.94897 11.2771 6.03482 11.273 6.12358L10.9118 13.2582ZM6.42279 3.00083H9.58272V2.33437H6.42279V3.00083ZM8.38327 13.2378C8.38327 13.4212 8.24265 13.571 8.06756 13.5725H7.94072C7.76562 13.5725 7.62362 13.4226 7.62362 13.2393V6.10903C7.62362 5.92423 7.76562 5.7758 7.94072 5.7758H8.06756C8.24127 5.7758 8.38327 5.92423 8.38327 6.10903V13.2378ZM5.56664 13.5667H5.43842C5.26746 13.571 5.12408 13.4299 5.11443 13.2495L4.71875 6.13523C4.70772 5.95188 4.84007 5.79326 5.01379 5.78162H5.02206L5.15855 5.77435C5.32812 5.77289 5.46737 5.91404 5.47564 6.09303L5.86305 13.2233C5.86719 13.3077 5.83824 13.3906 5.78585 13.4561C5.72932 13.5216 5.65074 13.5609 5.56664 13.5667ZM10.847 3.00083V2.33437C10.847 1.59661 10.2817 1 9.58272 1H6.42279C5.72518 1 5.15855 1.59661 5.15855 2.33437V3.00083H2.3171C2.14476 3.00083 2.00414 3.14635 2 3.32824V4.66261C2 4.84596 2.142 4.99584 2.3171 4.99584H2.68934L3.32077 14.3335C3.32077 14.7017 3.6034 15 3.95221 15H12.0464C12.3952 15 12.6778 14.7017 12.6778 14.3335L13.3051 5.00166H13.6857C13.8594 5.00166 14 4.85178 14 4.66843V3.32824C13.9972 3.1478 13.8608 3.00374 13.6912 3.00083H10.847Z" fill="#6E6E6E"/>
</svg>
	