<svg width="16" height="16" viewBox="0 0 16 16" fill="none" xmlns="http://www.w3.org/2000/svg">
<path fill-rule="evenodd" clip-rule="evenodd" d="M14.5348 6.89202L7.77471 0.132017C7.69017 0.0475053 7.57553 3.89544e-05 7.456 6.10352e-05H1.78404C1.53516 6.10352e-05 1.3334 0.201804 1.33337 0.450683V6.12268C1.33338 6.24221 1.38085 6.35684 1.46533 6.44139L8.22538 13.2014C8.40143 13.3773 8.68675 13.3773 8.86279 13.2014L14.5348 7.52935C14.7107 7.35333 14.7107 7.06804 14.5348 6.89202ZM4.44449 4.44446C3.9052 4.44446 3.41901 4.1196 3.21264 3.62136C3.00627 3.12312 3.12035 2.54963 3.50169 2.1683C3.88304 1.78697 4.45654 1.67291 4.95477 1.8793C5.453 2.0857 5.77784 2.57189 5.77782 3.11118C5.77773 3.84752 5.18082 4.4444 4.44449 4.44446ZM14.1773 9.29527L14.5347 9.64754C14.6191 9.73034 14.6667 9.84363 14.6667 9.96189C14.6667 10.0802 14.6191 10.1934 14.5347 10.2762L8.86261 15.87C8.68557 16.0433 8.40242 16.0433 8.22537 15.87L1.46542 9.20337C1.38108 9.12045 1.33351 9.00716 1.33337 8.88888V7.55555C1.33348 7.67378 1.38105 7.78702 1.46542 7.86986L8.22539 14.5365C8.40237 14.71 8.68565 14.71 8.86263 14.5365L14.1773 9.29527Z" fill="#222222"/>
</svg>
