<svg width="16" height="16" viewBox="0 0 16 16" fill="none" xmlns="http://www.w3.org/2000/svg">

  <path d="M3.53409 12.3643V11.7393H2.90909H2.18182C1.75777 11.7393 1.35777 11.5799 1.06819 11.3063C0.779822 11.034 0.625 10.6725 0.625 10.3036V2.06071C0.625 1.69183 0.779822 1.3303 1.06819 1.05794C1.35777 0.784434 1.75777 0.625 2.18182 0.625H13.8182C14.2422 0.625 14.6422 0.784434 14.9318 1.05794C15.2202 1.3303 15.375 1.69183 15.375 2.06071V10.3036C15.375 10.6725 15.2202 11.034 14.9318 11.3063C14.6422 11.5799 14.2422 11.7393 13.8182 11.7393H7.27273H7.02423L6.84358 11.9099L3.53409 15.0357V12.3643Z" stroke="#6E6E6E" stroke-width="1.25"/>
  <path d="M2.75 4H11.75" stroke="#6E6E6E" stroke-width="1.25"/>
  <path d="M10.25 2L13.25 4L10.25 6V2Z" fill="#6E6E6E"/>
  <path d="M13.25 8H4.25" stroke="#6E6E6E" stroke-width="1.25"/>
  <path d="M5.75 6L2.75 8L5.75 10V6Z" fill="#6E6E6E"/>
</svg>

