<?xml version="1.0" encoding="UTF-8"?>
<svg width="20px" height="20px" viewBox="0 0 20 20" version="1.1" xmlns="http://www.w3.org/2000/svg" xmlns:xlink="http://www.w3.org/1999/xlink">
    <title>alert</title>
    <g id="Page-1" stroke="none" stroke-width="1" fill="none" fill-rule="evenodd">
        <g id="alert" fill-rule="nonzero">
            <path d="M10,0.833333333 C4.93738979,0.833333333 0.833333333,4.93738979 0.833333333,10 C0.833333333,15.0626102 4.93738979,19.1666667 10,19.1666667 C15.0626102,19.1666667 19.1666667,15.0626102 19.1666667,10 C19.1666667,7.56884884 18.2008956,5.23727131 16.4818122,3.51818784 C14.7627287,1.79910437 12.4311512,0.833333333 10,0.833333333 Z" id="Path" fill="#CA242D"></path>
            <path d="M10.9765076,12.8288231 C11.1193001,12.8288231 11.2350563,12.9456593 11.2350563,13.0897839 L11.2350563,14.6555485 C11.2350563,14.7996732 11.1193001,14.9165093 10.9765076,14.9165093 L9.42521537,14.9165093 C9.28242286,14.9165093 9.16666667,14.7996732 9.16666667,14.6555485 L9.16666667,13.0897839 C9.16666667,12.9456593 9.28242286,12.8288231 9.42521537,12.8288231 L10.9765076,12.8288231 Z M10.9765076,5 C11.1193001,5 11.2350563,5.11683612 11.2350563,5.26096077 L11.2350563,11.5240193 C11.2350563,11.6681439 11.1193001,11.7849801 10.9765076,11.7849801 L9.42521537,11.7849801 C9.28242286,11.7849801 9.16666667,11.6681439 9.16666667,11.5240193 L9.16666667,5.26096077 C9.16666667,5.11683612 9.28242286,5 9.42521537,5 L10.9765076,5 Z" id="Combined-Shape" fill="#FFFFFF"></path>
        </g>
    </g>
</svg>