<?xml version="1.0" encoding="UTF-8"?>
<svg width="20px" height="20px" viewBox="0 0 20 20" version="1.1" xmlns="http://www.w3.org/2000/svg" xmlns:xlink="http://www.w3.org/1999/xlink">
    <title>missing</title>
    <g id="Page-1" stroke="none" stroke-width="1" fill="none" fill-rule="evenodd">
        <g id="missing" fill-rule="nonzero">
            <path d="M10.9765076,12.8288231 C11.1193001,12.8288231 11.2350563,12.9456593 11.2350563,13.0897839 L11.2350563,14.6555485 C11.2350563,14.7996732 11.1193001,14.9165093 10.9765076,14.9165093 L9.42521537,14.9165093 C9.28242286,14.9165093 9.16666667,14.7996732 9.16666667,14.6555485 L9.16666667,13.0897839 C9.16666667,12.9456593 9.28242286,12.8288231 9.42521537,12.8288231 L10.9765076,12.8288231 Z M10.9765076,5 C11.1193001,5 11.2350563,5.11683612 11.2350563,5.26096077 L11.2350563,11.5240193 C11.2350563,11.6681439 11.1193001,11.7849801 10.9765076,11.7849801 L9.42521537,11.7849801 C9.28242286,11.7849801 9.16666667,11.6681439 9.16666667,11.5240193 L9.16666667,5.26096077 C9.16666667,5.11683612 9.28242286,5 9.42521537,5 L10.9765076,5 Z" id="Combined-Shape" fill="#FFFFFF"></path>
            <g id="S_BadgeEmptyCircle_18_N@2x">
                <circle id="Oval" fill="#FFFFFF" opacity="0.85" cx="10" cy="10" r="10"></circle>
                <path d="M10.0006389,18.8888892 C14.9096812,18.888536 18.8888889,14.9088016 18.8888889,9.99975928 C18.8888889,5.09071699 14.9091997,1.11111114 10.0001574,1.11111114 C5.09111512,1.11111114 1.11141794,5.09040217 1.11111087,9.99944444 C1.11055686,12.357256 2.04695409,14.6186557 3.7141865,16.2858724 C5.3814189,17.9530892 7.64282733,18.8894652 10.0006389,18.8888892 Z" id="Path" fill="#DA7B11"></path>
                <path d="M10,4.44444444 C6.93175139,4.44444444 4.44444444,6.93175139 4.44444444,10 C4.44444444,13.0682486 6.93175139,15.5555556 10,15.5555556 C13.0682486,15.5555556 15.5555556,13.0682486 15.5555556,10 C15.5519523,6.93324513 13.0667549,4.44804766 10,4.44444444 Z M5.55554925,10 C5.55270387,8.303041 6.51799718,6.75308027 8.04223309,6.00716952 C9.56646901,5.26125876 11.3826532,5.45005621 12.7208778,6.49352778 L6.49352778,12.7208778 C5.88589595,11.9440585 5.55570496,10.9862376 5.55554925,10 L5.55554925,10 Z M10,14.4444507 C9.01376136,14.444301 8.05593865,14.1141094 7.27912222,13.5064722 L13.5064722,7.27912222 C14.5499438,8.61734682 14.7387412,10.433531 13.9928305,11.9577669 C13.2469197,13.4820028 11.696959,14.4472961 10,14.4444507 L10,14.4444507 Z" id="Shape" fill="#FFFFFF"></path>
            </g>
        </g>
    </g>
</svg>